<?xml version="1.0" standalone="no"?><!DOCTYPE svg PUBLIC "-//W3C//DTD SVG 1.1//EN" "http://www.w3.org/Graphics/SVG/1.1/DTD/svg11.dtd"><svg t="1767580909637" class="icon" viewBox="0 0 1024 1024" version="1.1" xmlns="http://www.w3.org/2000/svg" p-id="28673" xmlns:xlink="http://www.w3.org/1999/xlink" width="256" height="256"><path d="M857.033256 200.509686l-217.839377-38.57762c0 0 10.736529 42.713824 10.689457 81.780585-0.066515 52.969399 0.545422 141.284817 0.545422 216.102826 0 76.168774-193.58395 77.665871-192.282305-2.149966 0.296759-55.812143-0.343831-89.309048-0.343831-89.309048l0.066515 0c0.369414-7.393387 6.450922-13.297864 13.948687-13.297864 7.748475 0 14.018272 6.272867 14.018272 13.993712 0 0 0.666172 41.542138 0.63138 85.851297-0.025583 46.601364 134.087904 50.918693 135.630027 0.381693 0.423649-27.210735 1.171686-113.805976 0.234337-236.015342C621.392444 96.54894 477.312978 104.680131 477.312978 104.680131L336.69638 104.680131c-55.791677 0-176.810938 33.109072-176.810938 232.002958l0 86.974887 0 151.352103 0 132.292002c0 20.12434-15.754822 36.455283-35.198663 36.455283-19.442818 0-35.202757-16.330944-35.202757-36.455283l0-78.8263L89.484022 614.32141c0-27.581172-20.023032-49.934273-44.724621-49.934273-24.702612 0-44.731784 22.353101-44.731784 49.934273l0 79.180364c0 0.748037 0.072655 1.467421 0.106424 2.204202-0.040932 1.287319-0.106424 2.568499-0.106424 3.868097 0 70.669526 58.276265 127.953184 130.154315 127.953184 71.884191 0 130.160455-57.283658 130.160455-127.953184 0-2.360767-0.080841-4.711302-0.215918-7.05365 0.10847-1.339508 0.215918-2.692319 0.215918-4.059456l0-21.427008 0-49.77259c0-22.936385 19.577894-41.529859 43.748387-41.529859 24.167422 0 43.748387 18.593474 43.748387 41.529859l0 49.77259 0 188.709943c0 16.714683 13.574157 30.259164 30.317493 30.259164l173.806511-15.133675c16.746406 0 30.312376-13.544481 30.312376-30.261211L582.275542 671.557996l0-4.523013 0.552585 0c2.073218-8.955976 10.057053-15.653515 19.658735-15.653515l156.041916 0c9.594519 0 17.590634 6.697539 19.651572 15.653515l0.552585 0 0 4.523013 0 156.407236c0 16.705474 13.573133 30.252001 30.31033 30.252001l183.92087 25.222451c16.737196 0 30.312376-13.554714 30.312376-30.263258L1023.276511 667.034982c0.286526 0 0.467651 0 0.467651 0L1023.744162 371.983059C1023.745185 255.469416 912.841306 200.509686 857.033256 200.509686L857.033256 200.509686zM328.322666 254.16163c-2.64013 3.204995-6.03853 6.870478-9.94449 10.671037-4.287653-4.069689-10.051937-6.602372-16.440437-6.602372-13.230326 0-23.941272 10.69662-23.941272 23.90034 0 3.572362 0.833995 6.92983 2.235924 9.973142-7.117095 3.189645-14.144138 5.094018-20.47431 4.777817-11.506055-0.562818-9.803273-15.904225-5.581112-31.286564 5.547343-20.167319 25.900903-31.742958 45.565778-32.553417C321.064355 232.165664 339.531962 240.536308 328.322666 254.16163L328.322666 254.16163z" fill="#503DFF" p-id="28674"></path><path d="M877.030706 202.477504l-237.836827-40.545438c0 0 10.641361 39.47199 10.689457 81.780585l0.331551 220.34443c0 0-3.2623 51.076282-96.04138 53.175083-92.780103 2.098801-99.277074-57.786101-96.028077-59.565631l-0.343831-89.309048c0 0 1.245364-12.475126 14.015202-13.297864 12.770861-0.822738 14.018272 13.993712 14.018272 13.993712l0.809435 88.722694c0 0 5.445012 33.929764 68.89102 33.756825s65.98483-31.44313 65.98483-31.44313l0.690732-245.698888c0 0 3.560082-81.70793-89.544409-103.619986 0 0-11.154038-6.116301-43.943838-6.104021l-161.719218-0.100284c0 0-141.372821 4.250814-163.126264 173.35114 0 0-3.90289 30.634718-3.948939 52.453652-0.046049 21.818935-0.320295 381.394407-0.320295 381.394407s-1.523703 25.182542-30.312376 31.66621c0 0-31.922037 4.236488-39.565111-31.82073l-0.699941-104.291275c0 0-3.160993-39.499619-44.278459-42.936905 0 0-38.113039-0.027629-44.732807 42.951231l1.415232 111.124913c0 0 7.622608 67.566862 74.837452 97.608062 67.213821 30.039153 124.71749-8.080026 133.084041-14.944364s41.990347-31.527041 49.117674-79.912028c0 0 1.862417-2.677992 1.862417-43.61024l0.514723-66.722634c0 0 6.675026-34.004465 43.234687-35.148521 36.558637-1.143033 43.237757 35.170011 43.237757 35.170011l0 248.167103c0 0 7.835456 32.877805 37.756929 26.330692l172.021865-14.97404c0 0 25.167193-5.300726 25.167193-29.819143s0-173.574221 0-173.574221 5.074575-15.653515 20.211321-15.653515 158.988014 0.217964 158.988014 0.217964 11.909238 1.456165 17.256012 15.435551c5.348821 13.979386-0.551562 0-0.551562 0l0.774643 164.531264c0 0 2.316765 28.79072 38.514175 27.806299l143.097092 19.624966 32.399921 4.444219c0 0 29.726022-3.411703 30.312376-30.263258L1023.271394 359.055632C1023.277534 359.055632 1017.735308 232.864582 877.030706 202.477504zM330.490028 250.924913l-12.111852 13.907755c-14.089903-12.317537-30.033014-2.37714-30.033014-2.37714-16.833387 10.546194-8.114818 29.649274-8.114818 29.649274l-13.901615 4.378727c-7.80271 1.973958-13.455453-3.37998-13.455453-3.37998-5.91471-22.25077 8.946766-42.178635 8.946766-42.178635 24.179702-26.225291 57.984622-15.611559 57.984622-15.611559C336.478416 240.547565 330.490028 250.924913 330.490028 250.924913z" fill="#503DFF" p-id="28675"></path></svg>