<?xml version="1.0" standalone="no"?><!DOCTYPE svg PUBLIC "-//W3C//DTD SVG 1.1//EN" "http://www.w3.org/Graphics/SVG/1.1/DTD/svg11.dtd"><svg t="1767580870552" class="icon" viewBox="0 0 1152 1024" version="1.1" xmlns="http://www.w3.org/2000/svg" p-id="23832" xmlns:xlink="http://www.w3.org/1999/xlink" width="288" height="256"><path d="M934.912 317.44q-8.192 20.48-17.408 39.936-8.192 17.408-18.432 36.864t-21.504 35.84q-14.336 20.48-20.48 33.28t-6.656 22.016 3.584 16.384 12.288 16.384q7.168 9.216 13.312 16.896t14.336 23.04 19.456 44.544 29.696 81.408q11.264 32.768 19.968 60.416t15.872 50.176q34.816-19.456 57.344-39.936 28.672-25.6 55.296-25.6t42.496 16.896 16.384 44.544-23.04 56.32q-23.552 29.696-66.56 60.928t-108.544 56.832-154.112 42.496-203.264 16.896q-147.456 0-252.928-27.648t-174.08-61.44q-79.872-38.912-132.096-89.088-20.48-13.312-27.648-30.208t-5.12-33.792 13.312-30.72 28.16-20.48 37.888-4.096 44.544 18.944q9.216-28.672 18.944-62.464t18.944-66.56 16.896-61.952 11.776-47.616q-28.672-10.24-47.104-34.816t-18.432-56.32q0-20.48 7.68-38.4t20.992-30.72 30.72-20.48 37.888-7.68l6.144 0q15.36-16.384 39.936-28.16t61.44-19.456 88.064-10.752 119.808-3.072q48.128 0 87.04 3.584t65.536 7.68q31.744 5.12 56.32 11.264 19.456-59.392 68.608-106.496 21.504-19.456 51.2-38.912t70.656-34.816 93.184-24.576 118.784-9.216l0 380.928-131.072 0q-2.048-6.144-4.096-11.264-3.072-8.192-6.144-23.552-11.264 0-24.576-14.848t-24.576-32.256q-13.312-20.48-26.624-47.104zM1056.768 124.928q-14.336 0-24.576 10.24t-10.24 24.576 10.24 24.576 24.576 10.24 24.576-10.24 10.24-24.576-10.24-24.576-24.576-10.24zM868.352 843.776q-14.336-31.744-37.376-68.096t-57.344-67.072-80.896-51.2-108.032-20.48q-72.704 0-124.928 20.992t-89.088 51.712-59.392 65.024-33.792 59.904q71.68 29.696 153.6 46.08t158.72 16.384q65.536 0 138.752-14.848t139.776-38.4z" p-id="23833"></path></svg>